<svg xmlns="http://www.w3.org/2000/svg" height="48" viewBox="0 96 960 960" width="48"><path d="M140.5 860 124 843.5l188.39-188.116q29.952-29.9 39.531-69.015 9.579-39.115 9.579-117.566 0-51.636 22.51-101.495Q406.52 317.45 449.5 275q73.5-74 159.911-86 86.412-12 143.547 42.534Q809.5 288.452 796.5 375.476T710 535.5q-41.5 42-91.357 64.25Q568.787 622 515.705 622 441 622 399.75 631.75t-70.944 39.944L140.5 860Zm280-297.5q47.841 48.5 128.85 35.387 81.009-13.113 146.28-78.325 64.19-64.126 76.53-144.344Q784.5 295 737.5 248q-48-46.5-127.75-34t-144.488 76.992Q401.5 355 387.25 435.408 373 515.815 420.5 562.5ZM732.673 964q-43.698 0-73.185-29.815Q630 904.37 630 860.673q0-43.698 29.607-73.186Q689.214 758 732.619 758q43.406 0 73.393 29.607Q836 817.214 836 860.62q0 43.405-29.815 73.393Q776.37 964 732.673 964Zm.265-22q34.562 0 57.812-23.188t23.25-57.75q0-34.562-23.188-57.812T733.062 780q-34.562 0-57.812 23.188T652 860.938q0 34.562 23.188 57.812t57.75 23.25Zm.062-81Z"/></svg>